<?xml version="1.0" encoding="iso-8859-1"?>
<!-- Generator: Adobe Illustrator 19.0.0, SVG Export Plug-In . SVG Version: 6.00 Build 0)  -->
<svg version="1.1" id="Layer_1" xmlns="http://www.w3.org/2000/svg" xmlns:xlink="http://www.w3.org/1999/xlink" x="0px" y="0px"
	 viewBox="0 0 512 512" style="enable-background:new 0 0 512 512;" xml:space="preserve">
<g>
	<path style="fill:#D9DCDF;" d="M469.779,111.192h-121.79c-2.812,0-5.418,1.474-6.869,3.883c-1.45,2.41-1.532,5.403-0.215,7.888
		c12.105,22.837,18.243,47.467,18.243,73.205c0,89.882-76.96,163.006-171.557,163.006c-10.974,0-21.995-1.003-32.755-2.98
		c-2.343-0.433-4.752,0.201-6.58,1.724c-1.828,1.523-2.886,3.78-2.886,6.16v20.215c0,23.28,18.941,42.221,42.221,42.221h150.844
		l83.224,74.902c5.065,4.559,13.38,0.821,13.38-5.958v-68.944h34.739c23.28,0,42.221-18.941,42.221-42.221V153.413
		C512,130.133,493.059,111.192,469.779,111.192z"/>
	<path style="fill:#D9DCDF;" d="M355.073,115.453c-15.441-29.132-38.944-53.71-67.966-71.078
		c-29.783-17.825-64.195-27.246-99.516-27.246C84.153,17.129,0,97.447,0,196.169c0,44.052,16.742,86.02,47.264,118.812
		L9.425,389.203c-1.475,2.893-1.027,6.481,1.114,8.923c2.37,2.703,6.364,3.501,9.589,1.901l85.923-42.589
		c14.579,6.724,29.996,11.606,45.888,14.525c2.341,0.429,4.75-0.201,6.579-1.725c1.828-1.523,2.886-3.78,2.886-6.16V153.413
		c0-14.441,11.748-26.188,26.188-26.188H347.99c2.812,0,5.418-1.474,6.87-3.883C356.308,120.932,356.388,117.94,355.073,115.453z"/>
</g>
<path style="fill:#F6F6F7;" d="M355.073,115.453c-1.391-2.622-4.116-4.262-7.084-4.262H187.591
	c-23.281,0-42.221,18.941-42.221,42.221v210.666c0,3.868,2.762,7.186,6.567,7.884c11.714,2.154,23.71,3.245,35.654,3.245
	c103.438,0,187.591-80.318,187.591-179.04C375.182,167.785,368.416,140.629,355.073,115.453z"/>
<path style="fill:#FFC44F;" d="M256,145.396c-37.426,0-67.875,30.448-67.875,67.875s30.449,67.875,67.875,67.875
	s67.875-30.449,67.875-67.875S293.426,145.396,256,145.396z"/>
<g>
	<path style="fill:#F7B14D;" d="M272.568,264.578c-37.426,0-67.875-30.449-67.875-67.875c0-14.491,4.579-27.925,12.347-38.961
		c-17.468,12.292-28.915,32.594-28.915,55.529c0,37.426,30.449,67.875,67.875,67.875c22.935,0,43.236-11.446,55.528-28.915
		C300.492,259.999,287.059,264.578,272.568,264.578z"/>
	<path style="fill:#F7B14D;" d="M281.653,281.146c-4.428,0-8.017-3.588-8.017-8.017v-53.43l-13.19,8.794
		c-2.694,1.796-6.201,1.796-8.893,0l-13.19-8.794v53.43c0,4.428-3.589,8.017-8.017,8.017s-8.017-3.588-8.017-8.017V204.72
		c0-6.274,7.232-10.161,12.463-6.67L256,212.188l21.207-14.138c5.234-3.492,12.463,0.4,12.463,6.67v68.409
		C289.67,277.558,286.082,281.146,281.653,281.146z"/>
</g>
<path style="fill:#8E959F;" d="M222.33,296.645c0,15.03,12.227,27.257,27.257,27.257h12.827c15.03,0,27.257-12.227,27.257-27.257
	v-23.516h-67.34V296.645z"/>
<g>
	<path style="fill:#68727E;" d="M287.243,307.868h-62.484c1.416,3.121,3.414,5.922,5.838,8.284h50.808
		C283.829,313.79,285.825,310.989,287.243,307.868z"/>
	<rect x="222.33" y="281.675" style="fill:#68727E;" width="67.34" height="8.551"/>
</g>
<g>
	<path style="fill:#F7B14D;" d="M375.716,58.816c-7.011,0-10.607-8.746-5.669-13.686l17.102-17.102c3.132-3.13,8.207-3.13,11.338,0
		c3.131,3.132,3.131,8.207,0,11.338l-17.102,17.102C379.82,58.034,377.767,58.816,375.716,58.816z"/>
	<path style="fill:#F7B14D;" d="M409.921,93.021h-25.653c-4.428,0-8.017-3.588-8.017-8.017s3.588-8.017,8.017-8.017h25.653
		c4.428,0,8.017,3.588,8.017,8.017S414.349,93.021,409.921,93.021z"/>
	<path style="fill:#F7B14D;" d="M341.511,50.265c-4.428,0-8.017-3.588-8.017-8.017V16.595c0-4.428,3.588-8.017,8.017-8.017
		c4.428,0,8.017,3.588,8.017,8.017v25.653C349.528,46.677,345.94,50.265,341.511,50.265z"/>
</g>
<circle style="fill:#FFEBC8;" cx="285.929" cy="174.796" r="12.827"/>
<path style="fill:#68727E;" d="M230.347,285.956c0-4.417,0.53-8.707,1.504-12.827h-9.521v23.516
	c0,13.448,9.792,24.644,22.619,26.854C235.882,313.608,230.347,300.43,230.347,285.956z"/>
<g>
</g>
<g>
</g>
<g>
</g>
<g>
</g>
<g>
</g>
<g>
</g>
<g>
</g>
<g>
</g>
<g>
</g>
<g>
</g>
<g>
</g>
<g>
</g>
<g>
</g>
<g>
</g>
<g>
</g>
</svg>
