<?xml version="1.0" encoding="iso-8859-1"?>
<!-- Generator: Adobe Illustrator 19.0.0, SVG Export Plug-In . SVG Version: 6.00 Build 0)  -->
<svg version="1.1" id="Layer_1" xmlns="http://www.w3.org/2000/svg" xmlns:xlink="http://www.w3.org/1999/xlink" x="0px" y="0px"
	 viewBox="0 0 512 512" style="enable-background:new 0 0 512 512;" xml:space="preserve">
<path style="fill:#F7CB4F;" d="M310.345,19.449C296.718,7.028,277.93,0.463,256.012,0.463S215.306,7.029,201.68,19.45
	c-14.96,13.637-22.868,33.823-22.868,58.376c0,2.137,0.5,52.868,44.016,99.929c1.417,1.533,3.408,2.404,5.493,2.404h55.381
	c2.085,0,4.076-0.871,5.493-2.404c43.517-47.062,44.017-97.793,44.017-99.929C333.212,53.272,325.305,33.086,310.345,19.449z"/>
<path style="fill:#FBAB00;" d="M310.345,19.449C296.718,7.028,277.93,0.463,256.012,0.463c-4.711,0-9.268,0.322-13.67,0.921
	c16.077,2.19,29.965,8.314,40.663,18.065c14.96,13.637,22.868,33.823,22.868,58.376c0,2.137-0.5,52.868-44.017,99.929
	c-1.417,1.533-3.408,2.404-5.493,2.404h27.34c2.085,0,4.076-0.871,5.493-2.404c43.517-47.062,44.017-97.793,44.017-99.929
	C333.212,53.272,325.305,33.086,310.345,19.449z"/>
<path style="fill:#68B9D8;" d="M108.996,246.011c-0.068-0.001-0.136-0.001-0.205,0C49.82,246.82,0,295.251,0,351.77v32.625
	c0,4.145,3.353,7.505,7.489,7.505h202.809c4.136,0,7.489-3.36,7.489-7.505V351.77C217.787,295.251,167.967,246.82,108.996,246.011z"
	/>
<path style="fill:#3695B2;" d="M108.996,246.011c-0.068-0.001-0.136-0.001-0.205,0c-4.625,0.064-9.193,0.421-13.685,1.051
	c52.793,7.405,95.106,52.622,95.106,104.709v32.625c0,4.145-3.353,7.505-7.489,7.505h27.574c4.136,0,7.489-3.36,7.489-7.505V351.77
	C217.787,295.251,167.967,246.82,108.996,246.011z"/>
<path style="fill:#68B9D8;" d="M403.208,246.011c-0.068-0.001-0.137-0.001-0.205,0c-58.971,0.809-108.791,49.241-108.791,105.759
	v32.625c0,4.145,3.353,7.505,7.489,7.505h202.81c4.136,0,7.489-3.36,7.489-7.505V351.77C512,295.251,462.179,246.82,403.208,246.011
	z"/>
<path style="fill:#3695B2;" d="M403.208,246.011c-0.068-0.001-0.137-0.001-0.205,0c-4.633,0.064-9.21,0.422-13.71,1.054
	c52.782,7.416,95.081,52.627,95.081,104.705v32.625c0,4.145-3.353,7.505-7.489,7.505h27.626c4.136,0,7.489-3.36,7.489-7.505V351.77
	C512,295.251,462.179,246.82,403.208,246.011z"/>
<path style="fill:#F2464F;" d="M142.127,339.706l-13.83-60.159c-0.802-3.49-3.903-5.963-7.477-5.963H96.967
	c-3.574,0-6.675,2.473-7.477,5.963l-13.83,60.159c-0.621,2.701,0.257,5.527,2.297,7.399l25.756,23.623
	c1.466,1.345,3.323,2.017,5.18,2.017s3.714-0.672,5.18-2.017l25.756-23.623C141.871,345.233,142.748,342.406,142.127,339.706z"/>
<path style="fill:#D3333C;" d="M108.996,246.011c-0.068-0.001-0.136-0.001-0.205,0c-12.36,0.169-24.314,2.438-35.496,6.428
	l15.535,29.84h40.126l15.284-29.93C133.132,248.414,121.263,246.179,108.996,246.011z"/>
<path style="fill:#AF273B;" d="M144.241,252.348c-6.741-2.387-13.764-4.137-20.983-5.191l-17.701,35.121h23.4L144.241,252.348z"/>
<path style="fill:#F2464F;" d="M435.541,339.308l-13.498-58.714c-0.783-3.406-3.81-5.82-7.298-5.82h-23.28
	c-3.488,0-6.515,2.414-7.298,5.82l-13.497,58.714c-0.606,2.636,0.251,5.394,2.242,7.221l25.138,23.055
	c1.43,1.312,3.243,1.969,5.056,1.969s3.625-0.656,5.056-1.969l25.138-23.055C435.29,344.703,436.147,341.944,435.541,339.308z"/>
<path style="fill:#D3333C;" d="M383.09,282.371h40.031l15.192-30.073c-2.773-0.978-5.591-1.853-8.452-2.613
	c-0.062,0.005-0.124,0.009-0.177-0.005c-6.452-1.715-13.018-2.834-19.598-3.349c-0.143-0.011-0.287-0.023-0.43-0.033
	c-0.884-0.066-1.767-0.117-2.651-0.161c-0.22-0.011-0.439-0.025-0.66-0.034c-1.046-0.045-2.091-0.078-3.137-0.092
	c-0.068-0.001-0.136-0.001-0.205,0c-1.045,0.014-2.091,0.047-3.137,0.092c-0.22,0.009-0.439,0.023-0.658,0.034
	c-0.885,0.044-1.77,0.095-2.654,0.161c-0.142,0.01-0.284,0.022-0.426,0.033c-6.58,0.515-13.147,1.634-19.6,3.349
	c-0.03,0.008-0.069-0.01-0.103-0.013c-3.037,0.804-6.025,1.739-8.961,2.788L383.09,282.371z"/>
<path style="fill:#AF273B;" d="M399.768,282.278h23.399l15.145-29.98c-2.773-0.978-5.591-1.853-8.452-2.613
	c-0.062,0.005-0.124,0.009-0.177-0.005c-3.988-1.06-8.021-1.864-12.072-2.467L399.768,282.278z"/>
<path style="fill:#EFE7E4;" d="M244.396,180.159c-3.732,0-6.962-2.792-7.424-6.598l-8.244-67.848
	c-0.259-2.133,0.406-4.275,1.827-5.883c1.421-1.608,3.463-2.529,5.607-2.529h39.701c2.144,0,4.185,0.921,5.606,2.529
	c1.422,1.608,2.087,3.75,1.828,5.883l-8.244,67.848c-0.501,4.115-4.243,7.046-8.339,6.543c-4.106-0.501-7.029-4.242-6.529-8.356
	l7.222-59.437h-22.789l7.222,59.436c0.5,4.114-2.423,7.856-6.528,8.357C245.003,180.141,244.698,180.159,244.396,180.159z"/>
<path style="fill:#68B9D8;" d="M256.102,365.648c-0.068-0.001-0.136-0.001-0.205,0c-58.971,0.809-108.791,49.241-108.791,105.759
	v32.625c0,4.145,3.353,7.505,7.489,7.505h202.81c4.136,0,7.489-3.36,7.489-7.505v-32.625
	C364.894,414.889,315.073,366.457,256.102,365.648z"/>
<path style="fill:#3695B2;" d="M256.102,365.648c-0.068-0.001-0.137-0.001-0.205,0c-4.633,0.064-9.21,0.422-13.71,1.054
	c52.781,7.416,95.081,52.627,95.081,104.705v32.625c0,4.145-3.352,7.505-7.489,7.505h27.626c4.136,0,7.489-3.36,7.489-7.505v-32.625
	C364.894,414.889,315.073,366.457,256.102,365.648z"/>
<path style="fill:#F2464F;" d="M289.243,459.348L275.41,399.17c-0.802-3.491-3.905-5.965-7.48-5.965h-23.86
	c-3.576,0-6.677,2.474-7.48,5.965l-13.834,60.178c-0.621,2.702,0.257,5.529,2.298,7.401l25.764,23.63
	c1.467,1.345,3.324,2.018,5.182,2.018c1.857,0,3.715-0.673,5.183-2.018l25.763-23.63
	C288.986,464.877,289.864,462.05,289.243,459.348z"/>
<path style="fill:#FFC89F;" d="M403.106,107.175c-30.851,0-55.95,25.152-55.95,56.069v41.79c0,30.917,25.1,56.069,55.95,56.069
	c30.852,0,55.951-25.152,55.951-56.069v-41.79C459.057,132.328,433.957,107.175,403.106,107.175z"/>
<path style="fill:#F7B081;" d="M403.106,107.175c-4.718,0-9.299,0.594-13.678,1.701c24.26,6.132,42.273,28.179,42.273,54.367v41.79
	c0,26.189-18.012,48.235-42.273,54.368c4.38,1.107,8.96,1.701,13.678,1.701c30.852,0,55.951-25.152,55.951-56.069v-41.79
	C459.057,132.328,433.957,107.175,403.106,107.175z"/>
<path d="M459.057,184.279v-21.035c0-30.916-25.099-56.069-55.951-56.069c-30.851,0-55.95,25.152-55.95,56.069v20.904l7.494-0.017
	c42.353,0,57.783-28.658,57.783-28.658s10.785,28.52,39.13,28.652L459.057,184.279z"/>
<path style="fill:#D3333C;" d="M252.091,365.775c-0.88,0.043-1.76,0.095-2.639,0.16c-0.145,0.01-0.289,0.022-0.434,0.033
	c-6.579,0.515-13.145,1.634-19.596,3.349c-0.073,0.019-0.147,0.023-0.222,0.017c-3.012,0.801-5.974,1.732-8.887,2.773l15.559,29.679
	h40.258l15.286-29.777c-11.129-3.949-23.021-6.193-35.314-6.362c-0.068-0.001-0.137-0.001-0.205,0
	c-1.043,0.014-2.088,0.047-3.132,0.092C252.54,365.75,252.316,365.764,252.091,365.775z"/>
<path style="fill:#AF273B;" d="M252.727,401.787h23.402l15.286-29.777c-6.722-2.385-13.726-4.136-20.925-5.196L252.727,401.787z"/>
<path style="fill:#FFC89F;" d="M256,226.813c-30.851,0-55.951,26.372-55.951,58.787v43.817c0,32.415,25.1,58.787,55.951,58.787
	s55.951-26.372,55.951-58.787V285.6C311.951,253.185,286.851,226.813,256,226.813z"/>
<path style="fill:#F7B081;" d="M256,226.813c-4.837,0-9.532,0.65-14.012,1.868c24.092,6.552,41.939,29.587,41.939,56.919v43.817
	c0,27.333-17.846,50.368-41.939,56.92c4.48,1.218,9.175,1.868,14.012,1.868c30.851,0,55.951-26.372,55.951-58.787V285.6
	C311.951,253.185,286.851,226.813,256,226.813z"/>
<path d="M265.289,273.267c0,0,10.785,30.349,39.131,30.491l7.531,0.075V285.6c0-32.415-25.1-58.787-55.951-58.787
	s-55.951,26.372-55.951,58.787v18.046l7.458,0.118C249.86,303.764,265.289,273.267,265.289,273.267z"/>
<path style="fill:#FFC89F;" d="M108.894,107.175c-30.851,0-55.951,25.152-55.951,56.069v41.791
	c0,30.916,25.099,56.069,55.951,56.069s55.951-25.152,55.951-56.069v-41.791C164.845,132.328,139.745,107.175,108.894,107.175z"/>
<path style="fill:#F7B081;" d="M108.894,107.175c-4.766,0-9.393,0.604-13.813,1.733c24.193,6.179,42.138,28.196,42.138,54.336
	v41.791c0,26.14-17.945,48.157-42.138,54.336c4.42,1.129,9.047,1.733,13.813,1.733c30.851,0,55.951-25.152,55.951-56.069v-41.791
	C164.845,132.328,139.745,107.175,108.894,107.175z"/>
<path d="M164.845,184.189v-20.945c0-30.916-25.1-56.069-55.951-56.069s-55.951,25.152-55.951,56.069v20.86l7.5,0.027
	c42.353,0,57.782-28.658,57.782-28.658s10.785,28.52,39.13,28.652L164.845,184.189z"/>
<path style="fill:#FF6137;" d="M220.787,175.525v21.266c0,9.837,7.986,17.839,17.802,17.839h34.749
	c9.816,0,17.802-8.003,17.802-17.839v-21.266H220.787z"/>
<g>
	<path style="fill:#D3333C;" d="M422.452,282.371H399.79l13.476,58.622l-23.441,21.048l8.225,7.544
		c1.43,1.312,3.243,1.969,5.056,1.969s3.625-0.656,5.056-1.969L433.3,346.53c1.991-1.826,2.848-4.585,2.242-7.221L422.452,282.371z"
		/>
	<path style="fill:#D3333C;" d="M276.012,401.787h-23.393l13.54,58.843l-23.93,21.872l8.588,7.877
		c1.467,1.345,3.324,2.018,5.182,2.018c1.857,0,3.715-0.672,5.183-2.018l25.763-23.63c2.041-1.872,2.918-4.7,2.298-7.401
		L276.012,401.787z"/>
	<path style="fill:#D3333C;" d="M128.926,282.278h-23.37l13.498,58.714L94.95,362.688l8.764,8.038
		c1.466,1.345,3.323,2.017,5.18,2.017s3.714-0.672,5.18-2.017l25.756-23.623c2.04-1.871,2.918-4.698,2.297-7.398L128.926,282.278z"
		/>
</g>
<g>
</g>
<g>
</g>
<g>
</g>
<g>
</g>
<g>
</g>
<g>
</g>
<g>
</g>
<g>
</g>
<g>
</g>
<g>
</g>
<g>
</g>
<g>
</g>
<g>
</g>
<g>
</g>
<g>
</g>
</svg>
