<?xml version="1.0" encoding="UTF-8" standalone="no"?>
<!-- Created with Inkscape (http://www.inkscape.org/) -->

<svg
   xmlns:dc="http://purl.org/dc/elements/1.1/"
   xmlns:cc="http://creativecommons.org/ns#"
   xmlns:rdf="http://www.w3.org/1999/02/22-rdf-syntax-ns#"
   xmlns:svg="http://www.w3.org/2000/svg"
   xmlns="http://www.w3.org/2000/svg"
   xmlns:sodipodi="http://sodipodi.sourceforge.net/DTD/sodipodi-0.dtd"
   xmlns:inkscape="http://www.inkscape.org/namespaces/inkscape"
   width="376.07739mm"
   height="68.148804mm"
   viewBox="0 0 1332.5577 241.47214"
   id="svg2"
   version="1.1"
   inkscape:version="0.91 r13725"
   sodipodi:docname="logoCentral.svg">
  <defs
     id="defs4" />
  <sodipodi:namedview
     id="base"
     pagecolor="#ffffff"
     bordercolor="#666666"
     borderopacity="1.0"
     inkscape:pageopacity="0.0"
     inkscape:pageshadow="2"
     inkscape:zoom="0.24748737"
     inkscape:cx="580.5472"
     inkscape:cy="701.91244"
     inkscape:document-units="px"
     inkscape:current-layer="layer1"
     showgrid="false"
     inkscape:window-width="1227"
     inkscape:window-height="776"
     inkscape:window-x="1077"
     inkscape:window-y="24"
     inkscape:window-maximized="1"
     fit-margin-top="0"
     fit-margin-left="0"
     fit-margin-right="0"
     fit-margin-bottom="0" />
  <metadata
     id="metadata7">
    <rdf:RDF>
      <cc:Work
         rdf:about="">
        <dc:format>image/svg+xml</dc:format>
        <dc:type
           rdf:resource="http://purl.org/dc/dcmitype/StillImage" />
        <dc:title></dc:title>
      </cc:Work>
    </rdf:RDF>
  </metadata>
  <g
     inkscape:label="Camada 1"
     inkscape:groupmode="layer"
     id="layer1"
     transform="translate(-262.9229,-230.73287)">
    <circle
       style="opacity:1;fill:#fea401;fill-opacity:1;stroke:#fea401;stroke-width:3.03488135;stroke-miterlimit:4;stroke-dasharray:none;stroke-dashoffset:15.77745056;stroke-opacity:1"
       id="path4147"
       cx="-386.20718"
       cy="353.95627"
       r="45.982559"
       transform="scale(-1,1)" />
    <circle
       style="opacity:1;fill:#fea401;fill-opacity:1;stroke:#fea401;stroke-width:1.84087455;stroke-miterlimit:4;stroke-dasharray:none;stroke-dashoffset:15.77745056;stroke-opacity:1"
       id="path4147-3"
       cx="-476.59296"
       cy="259.54507"
       r="27.891741"
       transform="scale(-1,1)" />
    <circle
       style="opacity:1;fill:#fea401;fill-opacity:1;stroke:#fea401;stroke-width:1.84087455;stroke-miterlimit:4;stroke-dasharray:none;stroke-dashoffset:15.77745056;stroke-opacity:1"
       id="path4147-3-6"
       cx="-345.7782"
       cy="259.54504"
       r="27.891741"
       transform="scale(-1,1)" />
    <circle
       style="opacity:1;fill:#fea401;fill-opacity:1;stroke:#fea401;stroke-width:1.84087455;stroke-miterlimit:4;stroke-dasharray:none;stroke-dashoffset:15.77745056;stroke-opacity:1"
       id="path4147-3-7"
       cx="-291.73502"
       cy="368.13644"
       r="27.891741"
       transform="scale(-1,1)" />
    <circle
       style="opacity:1;fill:#fea401;fill-opacity:1;stroke:#fea401;stroke-width:1.84087455;stroke-miterlimit:4;stroke-dasharray:none;stroke-dashoffset:15.77745056;stroke-opacity:1"
       id="path4147-3-5"
       cx="-338.20206"
       cy="443.39282"
       r="27.891741"
       transform="scale(-1,1)" />
    <circle
       style="opacity:1;fill:#fea401;fill-opacity:1;stroke:#fea401;stroke-width:1.84087455;stroke-miterlimit:4;stroke-dasharray:none;stroke-dashoffset:15.77745056;stroke-opacity:1"
       id="path4147-3-3"
       cx="-472.59296"
       cy="433.21008"
       r="27.891741"
       transform="scale(-1,1)" />
    <rect
       style="opacity:1;fill:#fea401;fill-opacity:1;stroke:#fea401;stroke-width:2.17822456;stroke-miterlimit:4;stroke-dasharray:none;stroke-dashoffset:15.77745056;stroke-opacity:1"
       id="rect4197"
       width="8.5769958"
       height="59.011078"
       x="-524.42578"
       y="-127.38455"
       transform="matrix(-0.70710678,-0.70710678,-0.70710678,0.70710678,0,0)" />
    <rect
       style="opacity:1;fill:#fea401;fill-opacity:1;stroke:#fea401;stroke-width:2.17822456;stroke-miterlimit:4;stroke-dasharray:none;stroke-dashoffset:15.77745056;stroke-opacity:1"
       id="rect4197-5"
       width="8.5769958"
       height="59.011078"
       x="-509.62967"
       y="168.83441"
       transform="matrix(-0.8829476,-0.46947155,-0.46947155,0.8829476,0,0)" />
    <rect
       style="opacity:1;fill:#fea401;fill-opacity:1;stroke:#fea401;stroke-width:2.17822456;stroke-miterlimit:4;stroke-dasharray:none;stroke-dashoffset:15.77745056;stroke-opacity:1"
       id="rect4197-5-6"
       width="8.5769958"
       height="59.011078"
       x="-427.20871"
       y="-267.71252"
       transform="matrix(-0.20791171,-0.9781476,-0.9781476,0.20791171,0,0)" />
    <rect
       style="opacity:1;fill:#fea401;fill-opacity:1;stroke:#fea401;stroke-width:2.17822456;stroke-miterlimit:4;stroke-dasharray:none;stroke-dashoffset:15.77745056;stroke-opacity:1"
       id="rect4197-5-6-2"
       width="8.5769958"
       height="59.011078"
       x="219.62138"
       y="-442.61765"
       transform="matrix(0.92718385,-0.37460661,-0.37460661,-0.92718385,0,0)" />
    <rect
       style="opacity:1;fill:#fea401;fill-opacity:1;stroke:#fea401;stroke-width:2.17822456;stroke-miterlimit:4;stroke-dasharray:none;stroke-dashoffset:15.77745056;stroke-opacity:1"
       id="rect4197-5-6-2-9"
       width="8.5769958"
       height="59.011078"
       x="-55.327019"
       y="-617.96295"
       transform="matrix(0.61566146,-0.78801076,-0.78801076,-0.61566146,0,0)" />
    <g
       transform="matrix(1,0,0,1.0885643,170.59795,241.10939)"
       style="font-style:normal;font-variant:normal;font-weight:normal;font-stretch:normal;font-size:90px;line-height:125%;font-family:'Noto Sans Mono CJK JP';-inkscape-font-specification:'Noto Sans Mono CJK JP';letter-spacing:0px;word-spacing:0px;fill:#ffffff;fill-opacity:1;stroke:none;stroke-width:1px;stroke-linecap:butt;stroke-linejoin:miter;stroke-opacity:1"
       id="flowRoot4146">
      <g
         transform="matrix(1,0,0,0.91864119,39.386521,38.839316)"
         style="font-style:normal;font-weight:normal;font-size:40px;line-height:125%;font-family:sans-serif;letter-spacing:0px;word-spacing:0px;fill:#ffffff;fill-opacity:1;stroke:none;stroke-width:1px;stroke-linecap:butt;stroke-linejoin:miter;stroke-opacity:1"
         id="flowRoot4168">
        <path
           d="m 249.97266,101.36252 0,-70.999997 29.8,0 q 4.8,0 8.8,2 4.1,2 7,5.3 2.9,3.2 4.5,7.4 1.7,4.1 1.7,8.4 0,4.5 -1.6,8.7 -1.5,4.1 -4.3,7.4 -2.8,3.2 -6.8,5.2 -3.9,1.9 -8.7,1.9 l -19.2,0 0,24.699997 -11.2,0 z m 11.2,-34.599997 18.5,0 q 2.4,0 4.3,-1 2,-1 3.4,-2.8 1.4,-1.8 2.2,-4.2 0.8,-2.4 0.8,-5.3 0,-3 -0.9,-5.4 -0.9,-2.4 -2.5,-4.1 -1.6,-1.8 -3.7,-2.7 -2,-1 -4.2,-1 l -17.9,0 0,26.5 z"
           style="font-style:normal;font-variant:normal;font-weight:600;font-stretch:normal;font-size:100px;font-family:Raleway;-inkscape-font-specification:'Raleway Semi-Bold';fill:#ffffff;fill-opacity:1"
           id="path4177"
           inkscape:connector-curvature="0" />
        <path
           d="m 333.40078,102.36252 q -6.2,0 -11.2,-2.2 -4.9,-2.199997 -8.4,-5.899997 -3.5,-3.7 -5.4,-8.6 -1.9,-5 -1.9,-10.4 0,-5.4 1.9,-10.3 1.9,-5 5.4,-8.7 3.6,-3.7 8.5,-5.9 5,-2.2 11.1,-2.2 6.1,0 11,2.2 5,2.2 8.5,5.9 3.6,3.7 5.5,8.7 1.9,4.9 1.9,10.3 0,5.4 -1.9,10.4 -1.9,4.9 -5.5,8.6 -3.5,3.7 -8.5,5.899997 -4.9,2.2 -11,2.2 z m -15.6,-26.999997 q 0,3.8 1.2,7 1.2,3.2 3.3,5.6 2.1,2.3 4.9,3.7 2.9,1.3 6.2,1.3 3.3,0 6.1,-1.3 2.9,-1.4 5,-3.8 2.1,-2.4 3.3,-5.6 1.2,-3.2 1.2,-7 0,-3.7 -1.2,-6.9 -1.2,-3.3 -3.3,-5.7 -2.1,-2.4 -5,-3.7 -2.8,-1.4 -6.1,-1.4 -3.2,0 -6.1,1.4 -2.8,1.4 -4.9,3.8 -2.1,2.4 -3.4,5.7 -1.2,3.2 -1.2,6.9 z"
           style="font-style:normal;font-variant:normal;font-weight:600;font-stretch:normal;font-size:100px;font-family:Raleway;-inkscape-font-specification:'Raleway Semi-Bold';fill:#ffffff;fill-opacity:1"
           id="path4179"
           inkscape:connector-curvature="0" />
        <path
           d="m 399.45703,58.562523 q -6.4,0.2 -11.4,3 -4.9,2.7 -7,7.8 l 0,31.999997 -11,0 0,-52.299997 10.2,0 0,11.7 q 2.7,-5.4 7,-8.6 4.4,-3.3 9.4,-3.6 1,0 1.6,0 0.7,0 1.2,0.1 l 0,9.9 z"
           style="font-style:normal;font-variant:normal;font-weight:600;font-stretch:normal;font-size:100px;font-family:Raleway;-inkscape-font-specification:'Raleway Semi-Bold';fill:#ffffff;fill-opacity:1"
           id="path4181"
           inkscape:connector-curvature="0" />
        <path
           d="m 436.46172,98.662523 q -2.1,1 -5.8,2.299997 -3.7,1.2 -7.9,1.2 -2.6,0 -4.9,-0.7 -2.3,-0.7 -4.1,-2.099997 -1.7,-1.4 -2.7,-3.6 -1,-2.3 -1,-5.5 l 0,-32.7 -6.9,0 0,-8.5 6.9,0 0,-17.2 11,0 0,17.2 11.4,0 0,8.5 -11.4,0 0,29.2 q 0.2,2.8 1.7,4.1 1.6,1.2 3.9,1.2 2.3,0 4.4,-0.8 2.1,-0.8 3.1,-1.3 l 2.3,8.7 z"
           style="font-style:normal;font-variant:normal;font-weight:600;font-stretch:normal;font-size:100px;font-family:Raleway;-inkscape-font-specification:'Raleway Semi-Bold';fill:#ffffff;fill-opacity:1"
           id="path4183"
           inkscape:connector-curvature="0" />
        <path
           d="m 457.98047,102.36252 q -3.8,0 -7.1,-1.2 -3.2,-1.299997 -5.6,-3.499997 -2.3,-2.2 -3.7,-5.2 -1.3,-3 -1.3,-6.5 0,-3.7 1.6,-6.7 1.6,-3 4.5,-5.2 3,-2.2 7,-3.4 4.1,-1.2 9,-1.2 3.7,0 7.3,0.7 3.6,0.6 6.5,1.7 l 0,-3.6 q 0,-5.8 -3.3,-9 -3.3,-3.3 -9.5,-3.3 -4.2,0 -8.3,1.6 -4,1.5 -8.3,4.4 l -3.4,-7 q 10.1,-6.8 21,-6.8 10.8,0 16.8,5.5 6,5.5 6,15.8 l 0,18.9 q 0,3.5 2.9,3.6 l 0,9.399997 q -1.6,0.3 -2.8,0.4 -1.1,0.1 -2.2,0.1 -3.2,0 -5,-1.6 -1.7,-1.599997 -2.1,-4.099997 l -0.3,-3.3 q -3.5,4.6 -8.7,7.1 -5.1,2.399997 -11,2.399997 z m 3,-8.099997 q 4,0 7.5,-1.4 3.6,-1.5 5.6,-4.1 2.1,-1.8 2.1,-3.8 l 0,-6.9 q -2.8,-1.1 -6,-1.7 -3.1,-0.6 -6.1,-0.6 -5.9,0 -9.7,2.6 -3.7,2.5 -3.7,6.7 0,3.9 2.9,6.6 2.9,2.6 7.4,2.6 z"
           style="font-style:normal;font-variant:normal;font-weight:600;font-stretch:normal;font-size:100px;font-family:Raleway;-inkscape-font-specification:'Raleway Semi-Bold';fill:#ffffff;fill-opacity:1"
           id="path4185"
           inkscape:connector-curvature="0" />
        <path
           d="m 500.62578,28.362523 11,0 0,57.9 q 0,2.9 1.5,4.6 1.5,1.6 4.2,1.6 1.1,0 2.5,-0.4 1.5,-0.4 2.8,-0.9 l 1.6,8.6 q -2.4,1.099997 -5.7,1.699997 -3.3,0.7 -5.9,0.7 -5.7,0 -8.9,-3.099997 -3.1,-3.1 -3.1,-8.8 l 0,-61.9 z"
           style="font-style:normal;font-variant:normal;font-weight:600;font-stretch:normal;font-size:100px;font-family:Raleway;-inkscape-font-specification:'Raleway Semi-Bold';fill:#ffffff;fill-opacity:1"
           id="path4187"
           inkscape:connector-curvature="0" />
        <path
           d="m 573.38828,102.36252 q -5.3,0 -9.8,-2.1 -4.5,-2.199997 -7.8,-5.899997 -3.3,-3.7 -5.2,-8.6 -1.8,-5 -1.8,-10.7 0,-5.5 1.7,-10.3 1.8,-4.9 4.9,-8.6 3.2,-3.7 7.4,-5.8 4.3,-2.2 9.4,-2.2 6.3,0 11.1,3.1 4.8,3 7.5,7.7 l 0,-30.6 11,0 0,60 q 0,1.9 0.6,2.7 0.7,0.8 2.4,0.9 l 0,9.399997 q -1.7,0.3 -2.8,0.4 -1,0.1 -1.7,0.1 -3.3,0 -5.4,-1.7 -2.1,-1.699997 -2.3,-4.399997 l -0.2,-3.9 q -2.9,4.9 -7.9,7.7 -5,2.799997 -11.1,2.799997 z m 2.7,-9.399997 q 2.4,0 4.8,-0.8 2.4,-0.8 4.4,-2.2 2,-1.4 3.4,-3.3 1.5,-1.9 2.1,-4.1 l 0,-13.7 q -0.9,-2.5 -2.6,-4.6 -1.6,-2.1 -3.7,-3.6 -2.1,-1.5 -4.5,-2.3 -2.3,-0.8 -4.7,-0.8 -3.3,0 -6.1,1.5 -2.7,1.5 -4.7,4 -2,2.5 -3.2,5.7 -1.1,3.2 -1.1,6.6 0,3.6 1.2,6.8 1.3,3.2 3.5,5.6 2.2,2.4 5,3.8 2.9,1.4 6.2,1.4 z"
           style="font-style:normal;font-variant:normal;font-weight:600;font-stretch:normal;font-size:100px;font-family:Raleway;-inkscape-font-specification:'Raleway Semi-Bold';fill:#ffffff;fill-opacity:1"
           id="path4189"
           inkscape:connector-curvature="0" />
        <path
           d="m 639.26016,102.36252 q -6.2,0 -11.2,-2.2 -4.9,-2.199997 -8.4,-5.899997 -3.5,-3.7 -5.4,-8.6 -1.9,-5 -1.9,-10.4 0,-5.4 1.9,-10.3 1.9,-5 5.4,-8.7 3.6,-3.7 8.5,-5.9 5,-2.2 11.1,-2.2 6.1,0 11,2.2 5,2.2 8.5,5.9 3.6,3.7 5.5,8.7 1.9,4.9 1.9,10.3 0,5.4 -1.9,10.4 -1.9,4.9 -5.5,8.6 -3.5,3.7 -8.5,5.899997 -4.9,2.2 -11,2.2 z m -15.6,-26.999997 q 0,3.8 1.2,7 1.2,3.2 3.3,5.6 2.1,2.3 4.9,3.7 2.9,1.3 6.2,1.3 3.3,0 6.1,-1.3 2.9,-1.4 5,-3.8 2.1,-2.4 3.3,-5.6 1.2,-3.2 1.2,-7 0,-3.7 -1.2,-6.9 -1.2,-3.3 -3.3,-5.7 -2.1,-2.4 -5,-3.7 -2.8,-1.4 -6.1,-1.4 -3.2,0 -6.1,1.4 -2.8,1.4 -4.9,3.8 -2.1,2.4 -3.4,5.7 -1.2,3.2 -1.2,6.9 z"
           style="font-style:normal;font-variant:normal;font-weight:600;font-stretch:normal;font-size:100px;font-family:Raleway;-inkscape-font-specification:'Raleway Semi-Bold';fill:#ffffff;fill-opacity:1"
           id="path4191"
           inkscape:connector-curvature="0" />
        <path
           d="m 697.42578,65.362523 q 0,-6.4 2.3,-12.7 2.3,-6.4 6.7,-11.4 4.5,-5.1 10.9,-8.2 6.4,-3.1 14.5,-3.1 9.7,0 16.6,4.3 6.9,4.3 10.4,11.2 l -8.8,5.9 q -1.5,-3.2 -3.6,-5.4 -2.1,-2.2 -4.6,-3.5 -2.5,-1.3 -5.2,-1.8 -2.7,-0.6 -5.2,-0.6 -5.6,0 -9.8,2.3 -4.2,2.2 -7.1,5.9 -2.8,3.7 -4.3,8.3 -1.4,4.6 -1.4,9.2 0,5.2 1.7,9.9 1.7,4.7 4.7,8.3 3.1,3.6 7.3,5.8 4.2,2.1 9.2,2.1 2.6,0 5.3,-0.6 2.8,-0.7 5.3,-2.1 2.6,-1.5 4.7,-3.7 2.2,-2.2 3.6,-5.3 l 9.3,5.3 q -1.7,4 -4.8,7.1 -3.1,3 -7,5.1 -3.9,2.1 -8.3,3.199997 -4.3,1.1 -8.5,1.1 -7.5,0 -13.7,-3.199997 -6.2,-3.2 -10.7,-8.3 -4.5,-5.2 -7,-11.7 -2.5,-6.6 -2.5,-13.4 z"
           style="font-style:normal;font-variant:normal;font-weight:600;font-stretch:normal;font-size:100px;font-family:Raleway;-inkscape-font-specification:'Raleway Semi-Bold';fill:#ffffff;fill-opacity:1"
           id="path4193"
           inkscape:connector-curvature="0" />
        <path
           d="m 792.38516,102.36252 q -6.2,0 -11.2,-2.2 -4.9,-2.199997 -8.4,-5.899997 -3.5,-3.7 -5.4,-8.6 -1.9,-5 -1.9,-10.4 0,-5.4 1.9,-10.3 1.9,-5 5.4,-8.7 3.6,-3.7 8.5,-5.9 5,-2.2 11.1,-2.2 6.1,0 11,2.2 5,2.2 8.5,5.9 3.6,3.7 5.5,8.7 1.9,4.9 1.9,10.3 0,5.4 -1.9,10.4 -1.9,4.9 -5.5,8.6 -3.5,3.7 -8.5,5.899997 -4.9,2.2 -11,2.2 z m -15.6,-26.999997 q 0,3.8 1.2,7 1.2,3.2 3.3,5.6 2.1,2.3 4.9,3.7 2.9,1.3 6.2,1.3 3.3,0 6.1,-1.3 2.9,-1.4 5,-3.8 2.1,-2.4 3.3,-5.6 1.2,-3.2 1.2,-7 0,-3.7 -1.2,-6.9 -1.2,-3.3 -3.3,-5.7 -2.1,-2.4 -5,-3.7 -2.8,-1.4 -6.1,-1.4 -3.2,0 -6.1,1.4 -2.8,1.4 -4.9,3.8 -2.1,2.4 -3.4,5.7 -1.2,3.2 -1.2,6.9 z"
           style="font-style:normal;font-variant:normal;font-weight:600;font-stretch:normal;font-size:100px;font-family:Raleway;-inkscape-font-specification:'Raleway Semi-Bold';fill:#ffffff;fill-opacity:1"
           id="path4195"
           inkscape:connector-curvature="0" />
        <path
           d="m 875.94141,101.36252 -11,0 0,-29.299997 q 0,-7.4 -2.4,-10.7 -2.3,-3.4 -6.9,-3.4 -2.4,0 -4.8,0.9 -2.4,0.9 -4.5,2.6 -2.1,1.6 -3.8,3.9 -1.6,2.2 -2.5,4.9 l 0,31.099997 -11,0 0,-52.299997 10,0 0,10.5 q 3,-5.3 8.7,-8.3 5.7,-3.1 12.6,-3.1 4.7,0 7.7,1.7 3,1.7 4.7,4.7 1.8,2.9 2.5,6.8 0.7,3.8 0.7,8.1 l 0,31.899997 z"
           style="font-style:normal;font-variant:normal;font-weight:600;font-stretch:normal;font-size:100px;font-family:Raleway;-inkscape-font-specification:'Raleway Semi-Bold';fill:#ffffff;fill-opacity:1"
           id="path4197"
           inkscape:connector-curvature="0" />
        <path
           d="m 935.70703,101.36252 -11,0 0,-29.299997 q 0,-7.2 -2.6,-10.6 -2.5,-3.5 -7.3,-3.5 -2.3,0 -4.6,0.9 -2.3,0.9 -4.4,2.6 -2,1.6 -3.6,3.9 -1.6,2.2 -2.4,4.9 l 0,31.099997 -11,0 0,-72.999997 11,0 0,31.2 q 3,-5.4 8.1,-8.4 5.2,-3 11.3,-3 4.9,0 8,1.8 3.2,1.7 5.1,4.6 1.9,2.9 2.6,6.8 0.8,3.8 0.8,8.1 l 0,31.899997 z"
           style="font-style:normal;font-variant:normal;font-weight:600;font-stretch:normal;font-size:100px;font-family:Raleway;-inkscape-font-specification:'Raleway Semi-Bold';fill:#ffffff;fill-opacity:1"
           id="path4199"
           inkscape:connector-curvature="0" />
        <path
           d="m 972.27266,102.36252 q -6.1,0 -11.1,-2.1 -5,-2.199997 -8.6,-5.899997 -3.5,-3.7 -5.5,-8.6 -1.9,-4.9 -1.9,-10.4 0,-5.5 1.9,-10.4 2,-5 5.5,-8.7 3.6,-3.8 8.6,-5.9 5,-2.2 11.2,-2.2 6.1,0 11,2.2 5,2.2 8.5,5.9 3.5,3.6 5.3,8.5 1.9,4.8 1.9,10.1 0,1.2 -0.1,2.3 -0.1,1 -0.2,1.7 l -41.9,0 q 0.3,3.5 1.6,6.3 1.4,2.8 3.5,4.9 2.2,2 4.9,3.1 2.8,1.1 5.8,1.1 2.2,0 4.3,-0.5 2.2,-0.6 4,-1.6 1.8,-1.1 3.2,-2.6 1.4,-1.5 2.2,-3.3 l 9.4,2.7 q -2.7,5.9 -9,9.7 -6.2,3.699997 -14.5,3.699997 z m 15.9,-31.099997 q -0.3,-3.3 -1.7,-6.1 -1.3,-2.8 -3.4,-4.7 -2.1,-2 -4.9,-3.1 -2.8,-1.1 -5.9,-1.1 -3.1,0 -5.9,1.1 -2.7,1.1 -4.8,3.1 -2.1,1.9 -3.4,4.7 -1.3,2.8 -1.6,6.1 l 31.6,0 z"
           style="font-style:normal;font-variant:normal;font-weight:600;font-stretch:normal;font-size:100px;font-family:Raleway;-inkscape-font-specification:'Raleway Semi-Bold';fill:#ffffff;fill-opacity:1"
           id="path4201"
           inkscape:connector-curvature="0" />
        <path
           d="m 1004.743,75.162523 q 0,-5.5 1.9,-10.4 1.9,-4.9 5.4,-8.6 3.6,-3.7 8.6,-5.8 5,-2.2 11.2,-2.2 8.1,0 13.9,3.6 5.9,3.5 8.8,9.4 l -10.7,3.4 q -1.9,-3.3 -5.1,-5.1 -3.2,-1.9 -7.1,-1.9 -3.3,0 -6.2,1.3 -2.8,1.3 -4.9,3.7 -2.1,2.3 -3.3,5.5 -1.2,3.2 -1.2,7.1 0,3.8 1.2,7.1 1.3,3.2 3.4,5.6 2.2,2.4 5,3.8 2.9,1.3 6.1,1.3 2,0 4,-0.5 2,-0.6 3.6,-1.6 1.7,-1 2.9,-2.3 1.3,-1.3 1.9,-2.8 l 10.8,3.2 q -2.6,5.9 -8.7,9.7 -6.1,3.699997 -14.4,3.699997 -6.1,0 -11.1,-2.2 -5,-2.199997 -8.6,-5.899997 -3.5,-3.8 -5.5,-8.7 -1.9,-4.9 -1.9,-10.4 z"
           style="font-style:normal;font-variant:normal;font-weight:600;font-stretch:normal;font-size:100px;font-family:Raleway;-inkscape-font-specification:'Raleway Semi-Bold';fill:#ffffff;fill-opacity:1"
           id="path4203"
           inkscape:connector-curvature="0" />
        <path
           d="m 1064.0023,101.36252 0,-52.299997 11,0 0,52.299997 -11,0 z m 0,-60.899997 0,-12.1 11,0 0,12.1 -11,0 z"
           style="font-style:normal;font-variant:normal;font-weight:600;font-stretch:normal;font-size:100px;font-family:Raleway;-inkscape-font-specification:'Raleway Semi-Bold';fill:#ffffff;fill-opacity:1"
           id="path4205"
           inkscape:connector-curvature="0" />
        <path
           d="m 1168.2211,101.36252 -11,0 0,-29.299997 q 0,-7.3 -2.4,-10.7 -2.4,-3.4 -7,-3.4 -4.7,0 -8.6,3.5 -3.8,3.4 -5.5,8.9 l 0,30.999997 -11,0 0,-29.299997 q 0,-7.4 -2.4,-10.7 -2.4,-3.4 -6.9,-3.4 -4.7,0 -8.6,3.4 -3.9,3.4 -5.6,8.9 l 0,31.099997 -11,0 0,-52.299997 10,0 0,10.5 q 3.1,-5.5 8.1,-8.4 5.1,-3 11.6,-3 6.5,0 10.2,3.4 3.8,3.4 4.7,8.5 3.3,-5.8 8.3,-8.8 5,-3.1 11.4,-3.1 4.6,0 7.6,1.8 3.1,1.7 4.9,4.6 1.8,2.9 2.5,6.8 0.7,3.8 0.7,8.1 l 0,31.899997 z"
           style="font-style:normal;font-variant:normal;font-weight:600;font-stretch:normal;font-size:100px;font-family:Raleway;-inkscape-font-specification:'Raleway Semi-Bold';fill:#ffffff;fill-opacity:1"
           id="path4207"
           inkscape:connector-curvature="0" />
        <path
           d="m 1204.6945,102.36252 q -6.1,0 -11.1,-2.1 -5,-2.199997 -8.6,-5.899997 -3.5,-3.7 -5.5,-8.6 -1.9,-4.9 -1.9,-10.4 0,-5.5 1.9,-10.4 2,-5 5.5,-8.7 3.6,-3.8 8.6,-5.9 5,-2.2 11.2,-2.2 6.1,0 11,2.2 5,2.2 8.5,5.9 3.5,3.6 5.3,8.5 1.9,4.8 1.9,10.1 0,1.2 -0.1,2.3 -0.1,1 -0.2,1.7 l -41.9,0 q 0.3,3.5 1.6,6.3 1.4,2.8 3.5,4.9 2.2,2 4.9,3.1 2.8,1.1 5.8,1.1 2.2,0 4.3,-0.5 2.2,-0.6 4,-1.6 1.8,-1.1 3.2,-2.6 1.4,-1.5 2.2,-3.3 l 9.4,2.7 q -2.7,5.9 -9,9.7 -6.2,3.699997 -14.5,3.699997 z m 15.9,-31.099997 q -0.3,-3.3 -1.7,-6.1 -1.3,-2.8 -3.4,-4.7 -2.1,-2 -4.9,-3.1 -2.8,-1.1 -5.9,-1.1 -3.1,0 -5.9,1.1 -2.7,1.1 -4.8,3.1 -2.1,1.9 -3.4,4.7 -1.3,2.8 -1.6,6.1 l 31.6,0 z"
           style="font-style:normal;font-variant:normal;font-weight:600;font-stretch:normal;font-size:100px;font-family:Raleway;-inkscape-font-specification:'Raleway Semi-Bold';fill:#ffffff;fill-opacity:1"
           id="path4209"
           inkscape:connector-curvature="0" />
        <path
           d="m 1287.4648,101.36252 -11,0 0,-29.299997 q 0,-7.4 -2.4,-10.7 -2.3,-3.4 -6.9,-3.4 -2.4,0 -4.8,0.9 -2.4,0.9 -4.5,2.6 -2.1,1.6 -3.8,3.9 -1.6,2.2 -2.5,4.9 l 0,31.099997 -11,0 0,-52.299997 10,0 0,10.5 q 3,-5.3 8.7,-8.3 5.7,-3.1 12.6,-3.1 4.7,0 7.7,1.7 3,1.7 4.7,4.7 1.8,2.9 2.5,6.8 0.7,3.8 0.7,8.1 l 0,31.899997 z"
           style="font-style:normal;font-variant:normal;font-weight:600;font-stretch:normal;font-size:100px;font-family:Raleway;-inkscape-font-specification:'Raleway Semi-Bold';fill:#ffffff;fill-opacity:1"
           id="path4211"
           inkscape:connector-curvature="0" />
        <path
           d="m 1328.8445,98.662523 q -2.1,1 -5.8,2.299997 -3.7,1.2 -7.9,1.2 -2.6,0 -4.9,-0.7 -2.3,-0.7 -4.1,-2.099997 -1.7,-1.4 -2.7,-3.6 -1,-2.3 -1,-5.5 l 0,-32.7 -6.9,0 0,-8.5 6.9,0 0,-17.2 11,0 0,17.2 11.4,0 0,8.5 -11.4,0 0,29.2 q 0.2,2.8 1.7,4.1 1.6,1.2 3.9,1.2 2.3,0 4.4,-0.8 2.1,-0.8 3.1,-1.3 l 2.3,8.7 z"
           style="font-style:normal;font-variant:normal;font-weight:600;font-stretch:normal;font-size:100px;font-family:Raleway;-inkscape-font-specification:'Raleway Semi-Bold';fill:#ffffff;fill-opacity:1"
           id="path4213"
           inkscape:connector-curvature="0" />
        <path
           d="m 1358.5961,102.36252 q -6.2,0 -11.2,-2.2 -4.9,-2.199997 -8.4,-5.899997 -3.5,-3.7 -5.4,-8.6 -1.9,-5 -1.9,-10.4 0,-5.4 1.9,-10.3 1.9,-5 5.4,-8.7 3.6,-3.7 8.5,-5.9 5,-2.2 11.1,-2.2 6.1,0 11,2.2 5,2.2 8.5,5.9 3.6,3.7 5.5,8.7 1.9,4.9 1.9,10.3 0,5.4 -1.9,10.4 -1.9,4.9 -5.5,8.6 -3.5,3.7 -8.5,5.899997 -4.9,2.2 -11,2.2 z m -15.6,-26.999997 q 0,3.8 1.2,7 1.2,3.2 3.3,5.6 2.1,2.3 4.9,3.7 2.9,1.3 6.2,1.3 3.3,0 6.1,-1.3 2.9,-1.4 5,-3.8 2.1,-2.4 3.3,-5.6 1.2,-3.2 1.2,-7 0,-3.7 -1.2,-6.9 -1.2,-3.3 -3.3,-5.7 -2.1,-2.4 -5,-3.7 -2.8,-1.4 -6.1,-1.4 -3.2,0 -6.1,1.4 -2.8,1.4 -4.9,3.8 -2.1,2.4 -3.4,5.7 -1.2,3.2 -1.2,6.9 z"
           style="font-style:normal;font-variant:normal;font-weight:600;font-stretch:normal;font-size:100px;font-family:Raleway;-inkscape-font-specification:'Raleway Semi-Bold';fill:#ffffff;fill-opacity:1"
           id="path4215"
           inkscape:connector-curvature="0" />
      </g>
    </g>
  </g>
</svg>
