<?xml version="1.0" encoding="iso-8859-1"?>
<!-- Generator: Adobe Illustrator 19.0.0, SVG Export Plug-In . SVG Version: 6.00 Build 0)  -->
<svg version="1.1" id="Layer_1" xmlns="http://www.w3.org/2000/svg" xmlns:xlink="http://www.w3.org/1999/xlink" x="0px" y="0px"
	 viewBox="0 0 505 505" style="enable-background:new 0 0 505 505;" xml:space="preserve">
<circle style="fill:#FD8469;" cx="252.5" cy="252.5" r="252.5"/>
<polygon style="fill:#FFFFFF;" points="325.6,86.1 325.6,139.7 379.1,139.7 379.1,418.9 125.9,418.9 125.9,86.1 "/>
<polygon style="fill:#E6E9EE;" points="325.6,86.1 379.1,139.7 325.6,139.7 "/>
<polygon style="fill:#54C0EB;" points="266,323.3 241.6,283.8 230.4,302 190.2,302 190.2,291.4 224.5,291.4 241.6,263.6 266,303.1 
	273.2,291.5 313.4,291.5 313.4,302.1 279.1,302.1 "/>
<path style="fill:#324A5E;" d="M252.5,376.1c-43.2,0-78.3-35.1-78.3-78.3s35.1-78.3,78.3-78.3s78.3,35.1,78.3,78.3
	S295.7,376.1,252.5,376.1z M252.5,229.4c-37.7,0-68.4,30.7-68.4,68.4s30.7,68.4,68.4,68.4s68.4-30.7,68.4-68.4
	S290.2,229.4,252.5,229.4z"/>
<g>
	<path style="fill:#ACB3BA;" d="M196.7,314.5h-30.2c-0.9,0-1.5-0.7-1.5-1.5v-30.2c0-0.9,0.7-1.5,1.5-1.5h30.2c0.9,0,1.5,0.7,1.5,1.5
		V313C198.3,313.8,197.6,314.5,196.7,314.5z"/>
	<path style="fill:#ACB3BA;" d="M338.5,314.5h-30.2c-0.9,0-1.5-0.7-1.5-1.5v-30.2c0-0.9,0.7-1.5,1.5-1.5h30.2c0.9,0,1.5,0.7,1.5,1.5
		V313C340,313.8,339.4,314.5,338.5,314.5z"/>
	<path style="fill:#ACB3BA;" d="M235.8,242v-30.2c0-0.9,0.7-1.5,1.5-1.5h30.2c0.9,0,1.5,0.7,1.5,1.5V242c0,0.9-0.7,1.5-1.5,1.5
		h-30.2C236.5,243.6,235.8,242.9,235.8,242z"/>
	<path style="fill:#ACB3BA;" d="M235.8,383.8v-30.2c0-0.9,0.7-1.5,1.5-1.5h30.2c0.9,0,1.5,0.7,1.5,1.5v30.2c0,0.9-0.7,1.5-1.5,1.5
		h-30.2C236.5,385.4,235.8,384.7,235.8,383.8z"/>
</g>
<g>
	<rect x="155.7" y="112.9" style="fill:#E6E9EE;" width="90" height="11.4"/>
	<rect x="155.7" y="139.7" style="fill:#E6E9EE;" width="62.5" height="11.4"/>
</g>
<g>
</g>
<g>
</g>
<g>
</g>
<g>
</g>
<g>
</g>
<g>
</g>
<g>
</g>
<g>
</g>
<g>
</g>
<g>
</g>
<g>
</g>
<g>
</g>
<g>
</g>
<g>
</g>
<g>
</g>
</svg>
